<svg xmlns="http://www.w3.org/2000/svg" width="18.789" height="24.534" viewBox="0 0 18.789 24.534"><defs><style>.a{fill:#a7a9ac;}</style></defs><path class="a" d="M19.487,107.86c-.38-.261-.8-.529-1.151-.756,0,0,0-.005,0-.009a32.452,32.452,0,0,0-5.414-2.814l.037-.017a44.875,44.875,0,0,0,6.572-3.587,19.808,19.808,0,0,1,.3,3.457,19.851,19.851,0,0,1-.352,3.726m5.152-11.028V93.11c-1.384,1.227-2.788,2.389-4.151,3.425a13.8,13.8,0,0,0-5.243-4.669,16.286,16.286,0,0,1,3.543,5.922A55.313,55.313,0,0,1,5.849,104.27c4.987,2.052,9.047,3.763,12.849,6.451a16.154,16.154,0,0,1-3.454,5.679,13.8,13.8,0,0,0,5.106-4.466c1.951,1.479,3.587,2.881,4.289,3.527v-3.732c-.433-.357-.941-.769-1.5-1.208l-.007.005c-.442-.345-.916-.71-1.416-1.082a13.685,13.685,0,0,0,.1-10.389c.992-.747,1.95-1.5,2.83-2.224" transform="translate(-5.849 -91.866)"/></svg>