<svg xmlns="http://www.w3.org/2000/svg" width="22" height="22" viewBox="0 0 22 22"><defs><style>.a{fill:#444;}</style></defs><path class="a" d="M20.625,6.875H19.25v-5.5A1.376,1.376,0,0,0,17.875,0H4.125A1.376,1.376,0,0,0,2.75,1.375v5.5H1.375A1.376,1.376,0,0,0,0,8.25v6.875A1.376,1.376,0,0,0,1.375,16.5H2.75v4.125A1.376,1.376,0,0,0,4.125,22h13.75a1.376,1.376,0,0,0,1.375-1.375V16.5h1.375A1.376,1.376,0,0,0,22,15.125V8.25A1.376,1.376,0,0,0,20.625,6.875ZM4.125,13.75h13.75v6.875H4.125Zm13.75-1.375H4.125A1.376,1.376,0,0,0,2.75,13.75v1.375H1.375V8.25h19.25v6.875H19.25V13.75A1.376,1.376,0,0,0,17.875,12.375Zm-13.75-11h13.75v5.5H4.125Zm11,8.938a.688.688,0,1,0,.688-.687A.687.687,0,0,0,15.125,10.313Zm-12.375,0a.688.688,0,1,0,.688-.687A.688.688,0,0,0,2.75,10.313Zm15.125,0a.688.688,0,1,0,.688-.687A.687.687,0,0,0,17.875,10.313Zm-1.375,5.5a.688.688,0,0,0-.687-.687H6.188a.688.688,0,0,0,0,1.375h9.625A.688.688,0,0,0,16.5,15.813Zm-.687,2.063H6.188a.688.688,0,0,0,0,1.375h9.625a.688.688,0,0,0,0-1.375Z"/></svg>